<svg width="160" height="24" viewBox="0 0 160 24" fill="none" xmlns="http://www.w3.org/2000/svg">
<path d="M7.27683 0.931948C9.8239 -0.116131 12.5331 0.0934847 15.2191 0.0701941C18.1829 0.0701941 21.1236 0.023613 24.0875 0.000322348C26.1483 0.000322348 28.2091 -0.0229679 30.2236 0.326392C33.859 0.955239 36.7765 3.02811 38.5595 6.28879C38.6058 6.35867 38.6289 6.42854 38.6753 6.49841C38.6984 6.56828 38.7447 6.63815 38.7679 6.70802C40.3424 9.87555 40.4119 13.7418 38.9531 16.9559C38.2816 18.4232 37.147 19.7741 35.9661 20.8687C35.1094 21.6373 34.1368 22.3127 33.0949 22.8251C31.7519 23.4773 30.3625 23.7102 28.8806 23.9431C28.348 24.0363 27.7692 24.0363 27.2829 23.7801C26.7966 23.5239 26.4956 23.0348 26.1483 22.6155C25.801 22.173 25.4305 21.7305 25.06 21.288C24.3654 20.4728 23.6707 19.6809 22.9992 18.8657C21.9572 17.6313 20.9152 16.3969 19.8964 15.1392C19.4333 14.5803 18.9702 13.998 18.5303 13.4157C18.3913 13.2294 18.1135 12.8102 18.044 12.2046C17.9977 11.6456 18.1366 10.9003 18.6923 10.3414C18.785 10.2482 19.4796 9.54948 20.5216 9.61935C21.4015 9.68923 21.9572 10.2482 22.073 10.3647C24.4117 13.1595 26.7735 15.9544 29.1122 18.726C29.7374 18.6095 31.3119 18.2136 32.6086 16.8162C34.5768 14.6967 34.2758 11.9484 34.2295 11.4593C34.16 11.0634 33.6737 8.5014 31.8908 6.94093C31.4045 6.5217 30.8256 6.14905 30.2236 5.91614C29.5753 5.63665 28.7417 5.61336 28.047 5.54349C26.4956 5.38046 24.9442 5.38046 23.3928 5.35717C21.0542 5.35717 18.7386 5.33388 16.4 5.35717C15.2191 5.35717 14.0381 5.40375 12.8804 5.45033C11.7226 5.49691 10.8427 5.56678 9.8239 6.00931C8.0178 6.80119 6.51271 8.5014 5.98014 10.4345C5.1234 13.6253 7.32315 16.4901 7.41577 16.6065C9.03663 18.6328 11.2595 19.1219 11.931 19.2384C14.1076 19.2384 16.2842 19.2384 18.4608 19.2384C18.6692 19.2384 19.2249 19.3083 19.7343 19.7042C20.429 20.2166 20.5911 20.9619 20.6142 21.1482C20.7763 21.9867 20.4058 22.6388 20.29 22.8251C19.9427 23.4074 19.4565 23.6403 19.3407 23.6869C18.9934 23.8499 18.6692 23.8965 18.4608 23.9198C18.1598 23.9198 17.6967 23.9198 17.1178 23.9198C16.5389 23.9198 15.7979 23.9198 15.4738 23.9198C14.3855 23.9198 13.274 23.9198 12.1857 23.9198C11.1901 23.9198 10.1944 23.9664 9.19872 23.7801C8.31882 23.5937 7.46208 23.3142 6.65165 22.9183C3.73409 21.4743 1.46489 18.6328 0.515523 15.5119C0.214506 14.5337 0.0524201 13.5322 0.00610971 12.5307C-0.155977 7.89585 2.92366 2.74862 7.25368 0.955239L7.27683 0.931948Z" fill="url(#paint0_linear_180_10457)"/>
<path d="M65.78 5.48V16.38C65.78 18.42 64.56 19.28 63.24 19.28C62.1 19.28 61.24 18.96 60.6 18.22L53.18 9.64C53.08 9.52 52.98 9.46 52.86 9.46C52.68 9.46 52.52 9.6 52.52 9.84V19H48.96V8.34C48.96 6.04 50.28 5.18 52.1 5.18C53.38 5.18 54.18 5.52 55.02 6.52L61.62 14.42C61.72 14.56 61.84 14.58 61.96 14.58C62.12 14.58 62.24 14.46 62.24 14.22V5.48H65.78ZM75.6891 5.48H87.9891V9.06H77.7091C77.4891 9.06 77.3891 9.18 77.3891 9.4V10.94H87.9291V13.54H77.3891V15.18C77.3891 15.42 77.4891 15.54 77.7091 15.54H87.9891V19H75.6691C74.4091 19 73.7691 18.38 73.7691 17.12V7.3C73.7691 6.08 74.4091 5.48 75.6891 5.48ZM109.068 5.48H113.768C113.668 5.62 113.528 5.78 113.368 5.92L107.308 11.78L114.148 18.58C114.288 18.72 114.388 18.86 114.488 19H109.308C109.208 18.84 109.108 18.72 108.988 18.6L104.688 14.12L100.148 18.6C100.008 18.74 99.8875 18.88 99.7875 19H95.0275C95.1275 18.84 95.2275 18.74 95.3875 18.58L102.368 11.78L96.3275 5.92C96.1475 5.76 96.0475 5.64 95.9475 5.48H100.988C101.068 5.6 101.188 5.76 101.328 5.92L104.908 9.56L108.688 5.92C108.848 5.78 108.968 5.62 109.068 5.48ZM131.763 19H125.703C122.303 19 120.963 17.7 120.963 14.68V5.48H124.603V14.28C124.603 15.12 125.003 15.54 125.903 15.54H131.523C132.423 15.54 132.863 15.14 132.863 14.28V5.48H136.503V14.68C136.503 17.7 135.163 19 131.763 19ZM158.566 5.48V9.06H148.846C148.406 9.06 148.166 9.16 148.006 9.32C147.826 9.5 147.726 9.74 147.726 10.02C147.726 10.32 147.866 10.58 148.066 10.74C148.226 10.88 148.426 10.94 148.846 10.94H154.786C156.306 10.94 157.326 11.42 158.046 12.16C158.766 12.9 159.206 13.9 159.206 14.96C159.206 15.94 158.826 16.88 158.206 17.6C157.466 18.46 156.386 19 154.786 19H144.306V15.54H154.146C154.706 15.54 154.986 15.42 155.166 15.2C155.306 15.04 155.386 14.82 155.386 14.58C155.386 14.3 155.286 14.04 155.106 13.86C154.926 13.66 154.666 13.56 154.146 13.56H148.646C146.846 13.56 145.806 13.08 145.086 12.34C144.366 11.6 143.946 10.62 143.946 9.52C143.946 8.44 144.386 7.44 145.106 6.7C145.826 5.96 146.846 5.48 148.646 5.48H158.566Z" fill="url(#paint1_linear_180_10457)"/>
<defs>
<linearGradient id="paint0_linear_180_10457" x1="0.0524201" y1="11.9717" x2="40.0183" y2="11.9717" gradientUnits="userSpaceOnUse">
<stop stop-color="#2DD7BA"/>
<stop offset="0.2" stop-color="#52DD8D"/>
<stop offset="0.4" stop-color="#72E268"/>
<stop offset="0.5" stop-color="#8AE64B"/>
<stop offset="0.7" stop-color="#9CE936"/>
<stop offset="0.9" stop-color="#A6EB2A"/>
<stop offset="1" stop-color="#AAEC26"/>
</linearGradient>
<linearGradient id="paint1_linear_180_10457" x1="48" y1="12" x2="160" y2="12" gradientUnits="userSpaceOnUse">
<stop stop-color="#3CDAA8"/>
<stop offset="1" stop-color="#A5EB2C"/>
</linearGradient>
</defs>
</svg>
