<svg width="115" height="69" viewBox="0 0 115 69" fill="none" xmlns="http://www.w3.org/2000/svg">
<path d="M20.9228 2.68664C28.2089 -0.346063 36.0291 0.264293 43.7158 0.207072C52.2035 0.149851 60.6913 0.0735564 69.1791 0.0163356C75.0728 -0.0218116 81.0047 -0.0790325 86.8222 0.950943C97.2364 2.78201 105.648 8.63761 110.76 17.9455C110.855 18.1363 110.969 18.327 111.065 18.5177C111.16 18.7085 111.255 18.8992 111.351 19.09C115.852 28.1118 116.043 39.1745 111.866 48.3298C109.939 52.5451 106.697 56.3979 103.302 59.4688C100.841 61.7004 98.0756 63.5887 95.062 65.0192C91.19 66.8694 87.2036 67.556 82.9884 68.2045C81.4434 68.4334 79.784 68.4715 78.3916 67.7277C76.9802 66.9838 76.1219 65.5914 75.1682 64.3898C74.1573 63.1119 73.0891 61.8339 72.021 60.6132C70.0374 58.3053 68.0537 55.9974 66.0891 53.6895C63.0755 50.1609 60.1 46.6323 57.1436 43.0464C55.8085 41.4252 54.4542 39.823 53.2335 38.1063C52.852 37.5723 52.0128 36.3516 51.8411 34.6349C51.6886 33.0328 52.1082 30.9347 53.6913 29.3134C53.9774 29.0273 55.9229 27.0627 58.9175 27.2725C61.4733 27.4442 63.0374 29.0464 63.3616 29.4279C70.0946 37.3815 76.8466 45.3543 83.5796 53.308C85.3535 52.9647 89.9121 51.8775 93.6314 47.8911C99.3154 41.8257 98.438 34.0246 98.2663 32.6131C98.0565 31.4497 96.6832 24.1635 91.5715 19.7194C90.1791 18.5177 88.4816 17.4878 86.784 16.782C84.9148 16 82.5306 15.9047 80.5088 15.7139C76.0646 15.2752 71.6014 15.2371 67.1573 15.218C60.4815 15.1799 53.7866 15.1417 47.1109 15.2371C43.7349 15.2943 40.3588 15.3897 36.9828 15.5232C33.8356 15.6567 31.1272 15.8665 28.2089 17.1254C23.0018 19.3761 18.6721 24.2589 17.1844 29.7521C14.7239 38.8311 21.0182 47.0137 21.3234 47.3761C25.9964 53.1745 32.367 54.5669 34.2553 54.9102C40.4923 54.9102 46.7485 54.9102 52.9856 54.9102C53.5959 54.9483 55.1409 55.12 56.6477 56.2454C58.6313 57.7331 59.07 59.8503 59.1654 60.3653C59.6041 62.7685 58.5741 64.6187 58.2308 65.1718C57.2199 66.7931 55.8085 67.5179 55.5414 67.6514C54.5305 68.1473 53.5959 68.2617 53.0237 68.2808C52.1272 68.2808 50.8112 68.2808 49.1899 68.2808C47.5687 68.2808 45.4324 68.2808 44.4596 68.2808C41.3125 68.2808 38.1654 68.2808 34.9991 68.2808C32.119 68.2808 29.2771 68.4334 26.4351 67.8612C23.8983 67.3653 21.4378 66.526 19.1299 65.3816C10.7375 61.2808 4.23339 53.1554 1.50587 44.2671C0.761996 41.4633 0.266082 38.5832 0.151641 35.7031C-0.344273 22.4469 8.52496 7.81744 20.9228 2.68664Z" fill="url(#paint0_linear_265_770)"/>
<defs>
<linearGradient id="paint0_linear_265_770" x1="0.132567" y1="34.1581" x2="114.879" y2="34.1581" gradientUnits="userSpaceOnUse">
<stop stop-color="#2DD7BA"/>
<stop offset="0.2" stop-color="#52DD8D"/>
<stop offset="0.4" stop-color="#72E268"/>
<stop offset="0.5" stop-color="#8AE64B"/>
<stop offset="0.7" stop-color="#9CE936"/>
<stop offset="0.9" stop-color="#A6EB2A"/>
<stop offset="1" stop-color="#AAEC26"/>
</linearGradient>
</defs>
</svg>
