<svg width="121" height="76" viewBox="0 0 121 76" fill="none" xmlns="http://www.w3.org/2000/svg">
<circle cx="5.5" cy="16.5" r="5.5" fill="#FFC107"/>
<circle cx="14" cy="7" r="3" fill="#FFC107"/>
<circle cx="5.5" cy="5.5" r="5.5" transform="matrix(1 0 0 -1 104 15)" fill="#FFC107"/>
<circle cx="3" cy="3" r="3" transform="matrix(1 0 0 -1 115 22)" fill="#FFC107"/>
<rect x="25" width="76" height="76" rx="38" fill="url(#paint0_linear_2059_561)"/>
<path d="M76.9135 41.9246L77.2574 38.7283C77.4407 37.0229 77.5619 35.8968 77.4668 35.1873L77.5 35.1875C79.0533 35.1875 80.3125 33.9283 80.3125 32.375C80.3125 30.8217 79.0533 29.5625 77.5 29.5625C75.9467 29.5625 74.6875 30.8217 74.6875 32.375C74.6875 33.0775 74.9451 33.7198 75.3709 34.2127C74.7595 34.5901 73.9604 35.3863 72.7572 36.5846C71.8304 37.5078 71.3669 37.9694 70.8499 38.0411C70.5634 38.0806 70.2717 38.0399 70.0071 37.9235C69.5297 37.7131 69.2114 37.1426 68.5748 36.0013L65.2197 29.9851C64.8269 29.281 64.4982 28.6917 64.2019 28.2175C65.4175 27.5973 66.25 26.3333 66.25 24.875C66.25 22.8039 64.5711 21.125 62.5 21.125C60.4289 21.125 58.75 22.8039 58.75 24.875C58.75 26.3333 59.5825 27.5973 60.7981 28.2175C60.5018 28.6917 60.1731 29.2809 59.7803 29.9851L56.4251 36.0013C55.7886 37.1426 55.4703 37.7131 54.9929 37.9235C54.7284 38.0399 54.4365 38.0806 54.1501 38.0411C53.6331 37.9694 53.1696 37.5078 52.2428 36.5846C51.0398 35.3863 50.2404 34.5901 49.6291 34.2127C50.0549 33.7198 50.3125 33.0775 50.3125 32.375C50.3125 30.8217 49.0533 29.5625 47.5 29.5625C45.9467 29.5625 44.6875 30.8217 44.6875 32.375C44.6875 33.9283 45.9467 35.1875 47.5 35.1875L47.5332 35.1873C47.4382 35.8968 47.5593 37.0229 47.7427 38.7283L48.0865 41.9246C48.2773 43.6987 48.436 45.3867 48.6304 46.9062H76.3696C76.564 45.3867 76.7226 43.6987 76.9135 41.9246Z" fill="#120F23"/>
<path d="M60.4602 54.875H64.5398C69.8573 54.875 72.5159 54.875 74.2898 53.2873C75.0642 52.5941 75.5543 51.3448 75.9081 49.7188H49.0918C49.4456 51.3448 49.9359 52.5941 50.7101 53.2873C52.4841 54.875 55.1427 54.875 60.4602 54.875Z" fill="#120F23"/>
<defs>
<linearGradient id="paint0_linear_2059_561" x1="63" y1="0" x2="63" y2="76" gradientUnits="userSpaceOnUse">
<stop stop-color="#FFC107"/>
<stop offset="1" stop-color="#120F23"/>
</linearGradient>
</defs>
</svg>
