<svg width="16" height="16" viewBox="0 0 16 16" fill="none" xmlns="http://www.w3.org/2000/svg">
<path d="M14.7455 8.02358C14.7462 8.01534 14.75 8.00843 14.75 8.00019C14.75 7.23864 14.6027 0.560059 9.5 0.560059H6.5C3.1635 0.560059 1.25 3.27199 1.25 8.00019C1.25 8.00843 1.25375 8.01534 1.2545 8.02358C0.544 8.14873 0 8.80452 0 9.59451V12.2517C0 13.131 0.67275 13.846 1.5 13.846V15.1746C1.5 15.3215 1.61175 15.4403 1.75 15.4403H3.75C3.88825 15.4403 4 15.3215 4 15.1746V13.846H12V15.1746C12 15.3215 12.1117 15.4403 12.25 15.4403H14.25C14.3883 15.4403 14.5 15.3215 14.5 15.1746V13.846C15.3272 13.846 16 13.131 16 12.2517V9.59451C16 8.80452 15.456 8.14873 14.7455 8.02358ZM6.5 1.0915H9.5C14.1167 1.0915 14.25 7.29311 14.25 8.00019H13.75C13.75 7.34759 13.6238 1.62293 9.25 1.62293H6.75C3.84825 1.62293 2.25 3.88766 2.25 8.00019H1.75C1.75 1.9891 4.726 1.0915 6.5 1.0915ZM6 5.87444C4.8955 5.87444 4 6.82625 4 8.00019H2.75C2.75 3.16836 4.92525 2.15437 6.75 2.15437H9.25C10.835 2.15437 11.9773 2.99404 12.6453 4.65054C13.2063 6.04237 13.25 7.56627 13.25 8.00019H8C8 6.82625 7.1045 5.87444 6 5.87444ZM7.5 8.00019H4.5C4.5 7.11986 5.17175 6.40588 6 6.40588C6.82825 6.40588 7.5 7.11986 7.5 8.00019ZM3.5 14.9089H2V13.846H3.5V14.9089ZM14 14.9089H12.5V13.846H14V14.9089ZM15.5 12.2517C15.5 12.8379 15.0515 13.3146 14.5 13.3146H1.5C0.9485 13.3146 0.5 12.8379 0.5 12.2517V9.59451C0.5 9.00833 0.9485 8.53163 1.5 8.53163H14.5C15.0515 8.53163 15.5 9.00833 15.5 9.59451V12.2517Z" fill="#E7E7E9"/>
<path d="M2.75 9.86035C2.1985 9.86035 1.75 10.3371 1.75 10.9232C1.75 11.5094 2.1985 11.9861 2.75 11.9861C3.3015 11.9861 3.75 11.5094 3.75 10.9232C3.75 10.3371 3.3015 9.86035 2.75 9.86035ZM2.75 11.4547C2.47425 11.4547 2.25 11.2163 2.25 10.9232C2.25 10.6301 2.47425 10.3918 2.75 10.3918C3.02575 10.3918 3.25 10.6301 3.25 10.9232C3.25 11.2163 3.02575 11.4547 2.75 11.4547Z" fill="#E7E7E9"/>
<path d="M13.25 9.86035C12.6985 9.86035 12.25 10.3371 12.25 10.9232C12.25 11.5094 12.6985 11.9861 13.25 11.9861C13.8015 11.9861 14.25 11.5094 14.25 10.9232C14.25 10.3371 13.8015 9.86035 13.25 9.86035ZM13.25 11.4547C12.9742 11.4547 12.75 11.2163 12.75 10.9232C12.75 10.6301 12.9742 10.3918 13.25 10.3918C13.5258 10.3918 13.75 10.6301 13.75 10.9232C13.75 11.2163 13.5258 11.4547 13.25 11.4547Z" fill="#E7E7E9"/>
<path d="M10.75 10.126H5.25C5.11175 10.126 5 10.2448 5 10.3917C5 10.5386 5.11175 10.6574 5.25 10.6574H10.75C10.8882 10.6574 11 10.5386 11 10.3917C11 10.2448 10.8882 10.126 10.75 10.126Z" fill="#E7E7E9"/>
<path d="M10.75 11.1885H5.25C5.11175 11.1885 5 11.3073 5 11.4542C5 11.6011 5.11175 11.7199 5.25 11.7199H10.75C10.8882 11.7199 11 11.6011 11 11.4542C11 11.3073 10.8882 11.1885 10.75 11.1885Z" fill="#E7E7E9"/>
<path d="M10.6767 3.56132C10.5789 3.45742 10.4209 3.45742 10.3232 3.56132C10.2254 3.66522 10.2254 3.83315 10.3232 3.93705L10.8232 4.46849C10.8719 4.5203 10.9359 4.54634 10.9999 4.54634C11.0639 4.54634 11.1279 4.5203 11.1767 4.46849C11.2744 4.36459 11.2744 4.19666 11.1767 4.09276L10.6767 3.56132Z" fill="#E7E7E9"/>
<path d="M9.42669 3.56132C9.32894 3.45742 9.17094 3.45742 9.07319 3.56132C8.97544 3.66522 8.97544 3.83315 9.07319 3.93705L10.8232 5.79708C10.8719 5.8489 10.9359 5.87494 10.9999 5.87494C11.0639 5.87494 11.1279 5.8489 11.1767 5.79708C11.2744 5.69318 11.2744 5.52525 11.1767 5.42135L9.42669 3.56132Z" fill="#E7E7E9"/>
</svg>
