<svg width="15" height="16" viewBox="0 0 15 16" fill="none" xmlns="http://www.w3.org/2000/svg">
<path d="M15 0.782227V12.0565H12.9545V11.4302H14.3182V1.40858H0.681818V11.4302H6.13636V12.0565H0V0.782227H15ZM10.2273 2.03492H4.77273V2.66127H10.2273V2.03492ZM8.86364 3.91397V3.28762H6.13636V3.91397H8.86364ZM4.09091 7.04571H1.36364V7.67206H4.09091V7.04571ZM4.09091 8.29841H1.36364V8.92476H4.09091V8.29841ZM1.36364 10.1775H2.72727V9.55111H1.36364V10.1775ZM10.9091 8.29841C10.9091 8.54617 10.8291 8.78836 10.6793 8.99437C10.5294 9.20037 10.3165 9.36094 10.0673 9.45575C9.81812 9.55056 9.54394 9.57537 9.27942 9.52704C9.0149 9.4787 8.77193 9.35939 8.58122 9.1842C8.39051 9.00901 8.26064 8.7858 8.20802 8.5428C8.1554 8.2998 8.18241 8.04792 8.28562 7.81902C8.38883 7.59012 8.56361 7.39448 8.78786 7.25683C9.01211 7.11918 9.27575 7.04571 9.54545 7.04571C9.907 7.04604 10.2536 7.17813 10.5093 7.41298C10.7649 7.64784 10.9087 7.96627 10.9091 8.29841ZM10.2273 8.29841C10.2273 8.17453 10.1873 8.05343 10.1124 7.95043C10.0374 7.84742 9.93096 7.76715 9.80638 7.71974C9.68179 7.67233 9.5447 7.65993 9.41244 7.68409C9.28018 7.70826 9.15869 7.76792 9.06334 7.85551C8.96798 7.94311 8.90305 8.05471 8.87674 8.17621C8.85043 8.29771 8.86393 8.42365 8.91554 8.5381C8.96714 8.65255 9.05453 8.75037 9.16666 8.8192C9.27878 8.88802 9.4106 8.92476 9.54545 8.92476C9.72623 8.92459 9.89955 8.85855 10.0274 8.74112C10.1552 8.62369 10.2271 8.46448 10.2273 8.29841ZM10.2286 5.60949C10.2594 5.68899 10.3079 5.76169 10.3711 5.82291C10.4343 5.88413 10.5108 5.93253 10.5955 5.96498C10.6803 5.99743 10.7715 6.01321 10.8633 6.01132C10.9552 6.00943 11.0455 5.9899 11.1286 5.95399C11.2645 5.89568 11.4164 5.87686 11.5642 5.90002C11.712 5.92319 11.8486 5.98725 11.9557 6.08364C12.0617 6.18098 12.1324 6.30606 12.158 6.44174C12.1836 6.57741 12.163 6.71705 12.0989 6.84152C12.0594 6.91792 12.0378 7.00107 12.0355 7.08562C12.0331 7.17016 12.0501 7.25421 12.0853 7.33235C12.1205 7.41049 12.1732 7.48098 12.2399 7.53928C12.3065 7.59758 12.3858 7.64238 12.4725 7.67081C12.6134 7.71704 12.7353 7.80217 12.8215 7.91452C12.9077 8.02687 12.9539 8.16096 12.9539 8.29841C12.9539 8.43586 12.9077 8.56994 12.8215 8.6823C12.7353 8.79465 12.6134 8.87978 12.4725 8.92601C12.3858 8.9543 12.3064 8.99899 12.2397 9.0572C12.1729 9.11541 12.1202 9.18584 12.0849 9.26394C12.0496 9.34204 12.0326 9.42607 12.0349 9.5106C12.0372 9.59513 12.0587 9.67827 12.0982 9.75467C12.1463 9.84536 12.1711 9.94502 12.1706 10.0459C12.1701 10.1468 12.1443 10.2463 12.0953 10.3365C12.0462 10.4268 11.9752 10.5055 11.8878 10.5666C11.8003 10.6276 11.6987 10.6694 11.5909 10.6886V15.1018L9.54545 13.5121L7.5 15.1018V10.6886C7.39226 10.6693 7.29078 10.6276 7.20339 10.5666C7.116 10.5056 7.04505 10.427 6.99602 10.3368C6.94699 10.2466 6.92119 10.1472 6.92062 10.0464C6.92005 9.94556 6.94472 9.84596 6.99273 9.75529C7.03229 9.67887 7.05395 9.59566 7.05629 9.51106C7.05864 9.42646 7.04161 9.34235 7.00633 9.26418C6.97104 9.18601 6.91828 9.11551 6.85146 9.05726C6.78463 8.999 6.70524 8.95429 6.61841 8.92601C6.47751 8.87978 6.35561 8.79465 6.26943 8.6823C6.18324 8.56994 6.13698 8.43586 6.13698 8.29841C6.13698 8.16096 6.18324 8.02687 6.26943 7.91452C6.35561 7.80217 6.47751 7.71704 6.61841 7.67081C6.70517 7.64245 6.7845 7.59769 6.85126 7.53942C6.91802 7.48115 6.97074 7.41067 7.00602 7.33252C7.04129 7.25437 7.05833 7.1703 7.05604 7.08573C7.05375 7.00115 7.03218 6.91796 6.99273 6.84152C6.92852 6.71711 6.90775 6.57751 6.93326 6.44184C6.95877 6.30617 7.02931 6.18105 7.13523 6.08364C7.24234 5.98749 7.37883 5.92362 7.52647 5.90057C7.67412 5.87752 7.82591 5.89637 7.96159 5.95461C8.04474 5.99051 8.13515 6.01001 8.227 6.01186C8.31885 6.01371 8.4101 5.99787 8.49489 5.96536C8.57967 5.93285 8.6561 5.88439 8.71926 5.8231C8.78241 5.76181 8.8309 5.68904 8.86159 5.60949C8.91178 5.47984 9.00443 5.36764 9.12681 5.28829C9.2492 5.20895 9.39532 5.16635 9.54511 5.16635C9.69491 5.16635 9.84103 5.20895 9.96341 5.28829C10.0858 5.36764 10.1784 5.47984 10.2286 5.60949ZM10.9091 13.752V10.5952C10.7639 10.5783 10.6168 10.6081 10.4928 10.6794C10.3688 10.7508 10.2755 10.8593 10.2286 10.9867C10.1783 11.1161 10.0856 11.2281 9.96334 11.3073C9.84104 11.3865 9.69508 11.429 9.54545 11.429C9.39583 11.429 9.24987 11.3865 9.12757 11.3073C9.00527 11.2281 8.9126 11.1161 8.86227 10.9867C8.81544 10.8593 8.7221 10.7508 8.59808 10.6794C8.47406 10.6081 8.32699 10.5783 8.18182 10.5952V13.7514L9.54545 12.6916L10.9091 13.752ZM9.58636 10.7775C9.67913 10.5378 9.85037 10.3304 10.0766 10.1837C10.3028 10.037 10.5729 9.95827 10.8498 9.95823C11.0548 9.96025 11.257 10.0023 11.443 10.0816L11.4825 10.0246C11.4019 9.86913 11.3578 9.69981 11.3529 9.52765C11.3481 9.35548 11.3826 9.1843 11.4543 9.02518C11.5261 8.86606 11.6334 8.72255 11.7693 8.60394C11.9052 8.48533 12.0667 8.39425 12.2434 8.33662V8.2602C12.0669 8.2024 11.9055 8.11124 11.7697 7.99259C11.6339 7.87395 11.5267 7.73046 11.455 7.5714C11.3833 7.41233 11.3487 7.24122 11.3534 7.06911C11.3582 6.897 11.4021 6.72772 11.4825 6.57219L11.4232 6.51958C11.2539 6.59339 11.0696 6.63376 10.8823 6.63806C10.6949 6.64237 10.5087 6.61053 10.3356 6.5446C10.1625 6.47866 10.0064 6.3801 9.87731 6.25528C9.74825 6.13046 9.64914 5.98215 9.58636 5.81995H9.50455C9.44177 5.98215 9.34266 6.13046 9.2136 6.25528C9.08455 6.3801 8.92842 6.47866 8.75532 6.5446C8.58221 6.61053 8.39597 6.64237 8.20863 6.63806C8.0213 6.63376 7.83703 6.59339 7.66773 6.51958L7.60841 6.57219C7.68878 6.72772 7.73276 6.897 7.7375 7.06911C7.74224 7.24122 7.70764 7.41233 7.63594 7.5714C7.56424 7.73046 7.45702 7.87395 7.32122 7.99259C7.18541 8.11124 7.02403 8.2024 6.8475 8.2602V8.33662C7.02416 8.39425 7.18569 8.48533 7.32161 8.60394C7.45754 8.72255 7.56483 8.86606 7.63656 9.02518C7.70829 9.1843 7.74284 9.35548 7.73799 9.52765C7.73315 9.69981 7.689 9.86913 7.60841 10.0246L7.64795 10.081C7.83397 10.0019 8.03617 9.96005 8.24114 9.95823C8.51803 9.95827 8.78812 10.037 9.01433 10.1837C9.24054 10.3304 9.41178 10.5378 9.50455 10.7775L9.54545 10.8038L9.58636 10.7775Z" fill="#E7E7E9"/>
</svg>
