<svg width="31" height="30" viewBox="0 0 31 30" fill="none" xmlns="http://www.w3.org/2000/svg">
<g clip-path="url(#clip0_265_1619)">
<path d="M14.3937 17.1C16.604 17.8482 18.9848 16.7143 19.7115 14.5672C20.4382 12.4203 19.2356 10.0735 17.0253 9.3253C14.8151 8.57719 12.4342 9.71113 11.7076 11.858C10.9808 14.005 12.1835 16.3519 14.3937 17.1Z" stroke="#E7E7E9" stroke-miterlimit="10" stroke-linecap="round" stroke-linejoin="round"/>
<path d="M18.6264 7.23077C19.3694 6.5808 20.5271 7.34101 20.1937 8.26532C19.9461 8.96663 20.5809 9.66615 21.318 9.51823C22.2987 9.31707 22.931 10.5391 22.1634 11.1711C21.5922 11.6466 21.784 12.5645 22.5075 12.79C23.4702 13.0964 23.3926 14.4466 22.4023 14.6154C21.6527 14.7397 21.3554 15.618 21.8754 16.1721C22.5596 16.9077 21.8011 18.0274 20.8502 17.6862C20.1356 17.4346 19.4195 18.0354 19.5936 18.7631C19.8104 19.7283 18.575 20.3183 17.9181 19.5628C17.4224 18.9976 16.484 19.1646 16.264 19.8752C15.9674 20.812 14.5767 20.7097 14.3905 19.7452C14.2469 19.0181 13.3361 18.7098 12.7805 19.2002C12.0375 19.8502 10.8798 19.0899 11.2132 18.1656C11.4608 17.4643 10.826 16.7649 10.0889 16.9128C9.10817 17.1139 8.47593 15.8918 9.24354 15.2598C9.81466 14.7843 9.62286 13.8665 8.89938 13.641C7.93669 13.3346 8.01431 11.9843 9.00458 11.8155C9.75419 11.6912 10.0515 10.8128 9.53148 10.2589C8.84735 9.52326 9.60574 8.40356 10.5567 8.74481C11.2713 8.99641 11.9874 8.39551 11.8133 7.66777C11.5965 6.70264 12.8319 6.11271 13.4888 6.86818C13.9845 7.43338 14.9229 7.26635 15.1429 6.5557C15.4395 5.61894 16.8302 5.72133 17.0164 6.68581C17.1691 7.41602 18.0707 7.72119 18.6264 7.23077Z" stroke="#E7E7E9" stroke-miterlimit="10" stroke-linecap="round" stroke-linejoin="round"/>
<path d="M7.8206 17.9187L7.05332 18.5799C6.67871 18.899 6.98858 19.4982 7.49751 19.4185L9.35037 19.1248C9.72536 19.0772 10.0411 19.4168 9.93257 19.7677L9.38359 21.5108C9.25224 21.9898 9.8462 22.3556 10.23 22.0396L11.26 21.1476" stroke="#E7E7E9" stroke-miterlimit="10" stroke-linecap="round" stroke-linejoin="round"/>
<path d="M19.1153 21.7517L19.3262 22.7343C19.43 23.2153 18.8198 23.5032 18.4548 23.1276L17.1704 21.772C16.9014 21.5065 16.4443 21.5844 16.3174 21.9292L15.6948 23.6473C15.5083 24.1076 14.8142 24.0374 14.7012 23.5533L14.434 22.2222" stroke="#E7E7E9" stroke-miterlimit="10" stroke-linecap="round" stroke-linejoin="round"/>
</g>
<defs>
<clipPath id="clip0_265_1619">
<rect width="24.2819" height="22.9531" fill="white" transform="translate(7.35913) rotate(18.7)"/>
</clipPath>
</defs>
</svg>
