<svg width="23" height="22" viewBox="0 0 23 22" fill="none" xmlns="http://www.w3.org/2000/svg">
<path d="M12.8638 22L11.5 21.2143L14.6429 15.7143H19.3571C19.5636 15.7146 19.7681 15.6742 19.9589 15.5954C20.1497 15.5165 20.3231 15.4008 20.4691 15.2548C20.6151 15.1088 20.7308 14.9354 20.8097 14.7446C20.8885 14.5538 20.9289 14.3493 20.9286 14.1429V3.14286C20.9289 2.9364 20.8885 2.73189 20.8097 2.54108C20.7308 2.35027 20.6151 2.1769 20.4691 2.03091C20.3231 1.88491 20.1497 1.76918 19.9589 1.69033C19.7681 1.61148 19.5636 1.57108 19.3571 1.57143H3.64286C3.4364 1.57108 3.23189 1.61148 3.04108 1.69033C2.85027 1.76918 2.6769 1.88491 2.53091 2.03091C2.38491 2.1769 2.26918 2.35027 2.19033 2.54108C2.11148 2.73189 2.07108 2.9364 2.07143 3.14286V14.1429C2.07108 14.3493 2.11148 14.5538 2.19033 14.7446C2.26918 14.9354 2.38491 15.1088 2.53091 15.2548C2.6769 15.4008 2.85027 15.5165 3.04108 15.5954C3.23189 15.6742 3.4364 15.7146 3.64286 15.7143H10.7143V17.2857H3.64286C3.23011 17.2858 2.82139 17.2045 2.44005 17.0466C2.05871 16.8887 1.71222 16.6572 1.42036 16.3654C1.12851 16.0735 0.897007 15.727 0.739089 15.3457C0.581171 14.9643 0.499928 14.5556 0.5 14.1429V3.14286C0.499876 2.7301 0.581084 2.32136 0.738984 1.93999C0.896883 1.55863 1.12838 1.21211 1.42025 0.920245C1.71211 0.62838 2.05863 0.396883 2.43999 0.238984C2.82136 0.0810842 3.2301 -0.000123742 3.64286 1.41526e-07H19.3571C19.7699 -0.000123742 20.1786 0.0810842 20.56 0.238984C20.9414 0.396883 21.2879 0.62838 21.5798 0.920245C21.8716 1.21211 22.1031 1.55863 22.261 1.93999C22.4189 2.32136 22.5001 2.7301 22.5 3.14286V14.1429C22.5001 14.5556 22.4188 14.9643 22.2609 15.3457C22.103 15.727 21.8715 16.0735 21.5796 16.3654C21.2878 16.6572 20.9413 16.8887 20.5599 17.0466C20.1786 17.2045 19.7699 17.2858 19.3571 17.2857H15.5579L12.8638 22Z" fill="#E7E7E9"/>
</svg>
