<svg width="18" height="22" viewBox="0 0 18 22" fill="none" xmlns="http://www.w3.org/2000/svg">
<path d="M8.49192 5.588C8.49192 5.88981 8.23823 6.149 7.93504 6.14487C7.6291 6.14075 7.32523 6.14213 7.01929 6.14213C6.81579 6.14213 6.61298 6.14213 6.41085 6.14075C5.9021 6.13663 5.3961 6.1545 4.88804 6.1655C4.56629 6.17238 4.29748 5.89256 4.29748 5.57631C4.29748 5.25319 4.56629 4.98988 4.88804 4.98712C4.93685 4.98712 4.98567 4.98644 5.03448 4.98644C5.51092 4.98644 5.98735 5.00362 6.46379 5.01806C6.95329 5.03181 7.44485 5.03456 7.93435 5.03319C8.23823 5.03044 8.49192 5.28688 8.49192 5.588ZM15.5092 15.2873C15.5085 15.2886 15.5072 15.2893 15.5058 15.2907C15.5017 15.2955 15.4982 15.301 15.4941 15.3058C15.4996 15.2996 15.5044 15.2934 15.5092 15.2873ZM17.5085 12.5366C17.1579 13.0247 16.81 13.5162 16.4566 14.0016C16.3054 14.212 16.1459 14.4162 15.9953 14.6279C15.8365 14.8521 15.6825 15.0776 15.5058 15.2907C15.4288 15.3835 15.3497 15.455 15.2232 15.4901C15.151 15.51 15.0761 15.5128 15.0025 15.5017C14.964 15.5093 14.9283 15.5251 14.8877 15.5251C14.4037 15.5196 13.9218 15.5238 13.4378 15.4921C13.1662 15.4756 12.896 15.4619 12.6259 15.4495C12.3529 15.4371 12.08 15.4426 11.807 15.4385C11.2667 15.4309 10.7249 15.4234 10.1825 15.4151C10.1866 15.4426 10.199 15.4674 10.199 15.4956C10.1949 15.972 10.177 16.4478 10.1894 16.9242C10.2004 17.3621 10.2086 17.8001 10.2127 18.2394C10.2182 18.6704 10.2169 19.1029 10.2265 19.5353C10.2306 19.7368 10.232 19.9375 10.2375 20.1376C10.2402 20.3136 10.2554 20.4909 10.2334 20.6669C10.2334 20.768 10.2072 20.8622 10.1584 20.9495C10.1082 21.0327 10.0409 21.0994 9.95767 21.1489C9.84285 21.2156 9.7081 21.2321 9.57885 21.2087C9.53623 21.2197 9.49567 21.2355 9.45029 21.2355C8.9711 21.2369 8.48985 21.2829 8.01204 21.3118C7.85117 21.3214 7.7061 21.2479 7.60092 21.1344C7.4146 21.0457 7.28054 20.8581 7.28123 20.6415C7.29085 18.909 7.2716 17.1744 7.32454 15.4433C7.32592 15.3917 7.34242 15.3443 7.35685 15.2969C7.09217 15.2921 6.82679 15.2866 6.5621 15.2742C6.25135 15.2577 5.99148 15.026 5.99148 14.7029C5.99148 14.5764 6.04441 14.4554 6.12279 14.3543C6.10973 14.3069 6.09323 14.2608 6.09392 14.2092C6.09529 13.8682 6.08017 13.5286 6.07604 13.1876C6.07329 12.8886 6.07604 12.5902 6.07329 12.2925C6.06642 11.5912 6.01623 10.8941 6.04992 10.1929C6.06229 9.93644 6.22248 9.72125 6.45554 9.64287C6.5566 9.50125 6.71542 9.40363 6.90104 9.39675C7.08598 9.39125 7.27229 9.38713 7.45792 9.38231C7.44279 9.13756 7.43592 8.89281 7.43179 8.64806C7.43179 8.63706 7.43729 8.62813 7.43798 8.61713C7.20354 8.61644 6.9691 8.61231 6.73398 8.613C6.15717 8.61438 5.57967 8.61438 5.00148 8.60337C4.4226 8.58962 3.84167 8.60956 3.26279 8.57519C3.09298 8.60062 2.91492 8.56144 2.7946 8.43013C2.4151 8.01281 2.0851 7.5515 1.70698 7.13281C1.61004 7.02625 1.50898 6.92519 1.41479 6.81794C1.29998 6.68663 1.19617 6.545 1.09029 6.40681C0.885415 6.14213 0.684665 5.87606 0.48804 5.60588C0.404853 5.49244 0.397291 5.31369 0.432353 5.18444C0.470853 5.04831 0.562291 4.92938 0.683291 4.85856C0.698416 4.84963 0.71629 4.85238 0.732103 4.8455C0.75479 4.80356 0.775415 4.76025 0.809103 4.72381C0.825603 4.70662 0.840728 4.68875 0.855853 4.67088C0.96379 4.52788 1.06898 4.3835 1.17967 4.2405C1.15079 4.27763 1.12329 4.31269 1.09579 4.34844C1.32198 4.05212 1.5296 3.74137 1.74273 3.43406C2.00604 3.05456 2.28723 2.69019 2.56979 2.3265C2.65298 2.21856 2.8276 2.167 2.95617 2.167C3.00085 2.167 3.0421 2.18212 3.08404 2.19244C3.17273 2.13606 3.27104 2.09413 3.38242 2.09413C3.67185 2.09413 3.95923 2.09687 4.24867 2.101C5.22492 2.11681 6.19979 2.15256 7.17535 2.1615C7.17742 2.08106 7.17879 2.00063 7.18154 1.92019C7.18292 1.85075 7.18567 1.78131 7.18842 1.71119C7.19117 1.61013 7.18429 1.49188 7.22004 1.39906C7.28535 1.22719 7.38504 1.04294 7.56517 0.963875C7.6841 0.912312 7.78654 0.875188 7.91167 0.853188C8.10554 0.820875 8.3001 0.796812 8.49398 0.771375C8.7071 0.743187 8.92023 0.716375 9.13404 0.695063C9.18217 0.69025 9.23029 0.6875 9.27842 0.6875C9.41317 0.6875 9.54585 0.707437 9.67785 0.74525C9.77754 0.77275 9.8786 0.784437 9.96729 0.843562C10.023 0.879313 10.078 0.914375 10.1185 0.966625C10.188 1.03469 10.2347 1.1165 10.2615 1.21069C10.309 1.32688 10.3131 1.463 10.3255 1.58881C10.3454 1.79231 10.3681 1.99513 10.3942 2.19725C10.3949 2.20275 10.3956 2.20756 10.3963 2.21306C10.4286 2.21306 10.4609 2.21512 10.4932 2.21375C10.6039 2.211 10.7125 2.1945 10.8219 2.19313C11.0611 2.18763 11.2474 2.34712 11.334 2.55131C11.3884 2.63656 11.4275 2.73144 11.4296 2.838C11.4379 3.34675 11.4282 3.85687 11.4214 4.36631C11.4145 4.81525 11.3815 5.26281 11.3698 5.71175C11.3602 6.14969 11.3602 6.59038 11.3712 7.02969C11.3753 7.24694 11.3808 7.46487 11.3904 7.68213C11.3959 7.79556 11.411 7.91244 11.4055 8.02588C11.3918 8.31944 11.1711 8.5635 10.8679 8.5635C10.8267 8.5635 10.7875 8.54906 10.7476 8.53944C10.6624 8.5855 10.5702 8.61713 10.4692 8.613C10.4025 8.61025 10.3358 8.61713 10.2684 8.6185C10.2574 8.84881 10.245 9.07844 10.234 9.30875C10.2334 9.32456 10.2258 9.33831 10.2237 9.35413C10.4637 9.3555 10.7036 9.35894 10.9435 9.35825C11.5142 9.35825 12.0855 9.34037 12.6568 9.35962C13.1999 9.3775 13.7444 9.40294 14.2869 9.36788C14.4959 9.35481 14.6739 9.48888 14.7722 9.66419C15.0369 9.8395 15.2885 10.0299 15.5395 10.2252C15.7444 10.3847 15.93 10.5607 16.1163 10.7394C16.3019 10.9154 16.493 11.0846 16.6876 11.2509C16.8698 11.4077 17.0575 11.5589 17.2328 11.7239C17.2562 11.7336 17.2802 11.7404 17.3015 11.7528C17.4301 11.8264 17.525 11.9522 17.5649 12.0938C17.604 12.2306 17.5944 12.4176 17.5085 12.5366ZM9.10173 9.34794C9.11067 9.34794 9.1196 9.34794 9.12785 9.34794C9.12717 9.33419 9.1196 9.3225 9.12029 9.30875C9.12304 9.08187 9.12785 8.85569 9.13198 8.62881C8.94567 8.624 8.75935 8.62469 8.57442 8.624C8.5751 8.63225 8.57923 8.63981 8.57923 8.64806C8.5806 8.82131 8.5806 8.99456 8.5806 9.16781C8.57992 9.23175 8.58542 9.295 8.58542 9.35825C8.75729 9.35481 8.92917 9.34794 9.10173 9.34794ZM8.35029 1.90919C8.35167 1.99925 8.35304 2.08931 8.3551 2.17938C8.63148 2.18488 8.90785 2.18762 9.18423 2.19244C9.21448 2.19312 9.24541 2.19381 9.27567 2.1945C9.26742 2.057 9.26467 1.9195 9.25023 1.78269C9.16704 1.78131 9.08523 1.78681 9.00204 1.79575C8.78548 1.82669 8.56617 1.86175 8.35029 1.90919ZM7.22623 7.49169C7.77348 7.49306 8.32073 7.49031 8.86729 7.49031C9.31554 7.49031 9.76379 7.46831 10.21 7.41606C10.2554 7.40987 10.3 7.40575 10.3454 7.40025C10.3461 7.27031 10.3468 7.14038 10.3461 7.01113C10.3447 6.56631 10.3434 6.12013 10.3461 5.67531C10.3489 5.23187 10.3819 4.78981 10.375 4.34637C10.3702 4.00194 10.3571 3.65681 10.3461 3.31169C10.3 3.311 10.2547 3.30619 10.2086 3.3055C9.11823 3.29588 8.02992 3.2835 6.93954 3.27525C6.37992 3.27112 5.82373 3.21956 5.26548 3.21681C4.63848 3.21269 4.00942 3.23331 3.38173 3.23881C3.33567 3.2395 3.29373 3.223 3.25042 3.21269C3.10192 3.39969 2.95273 3.586 2.8056 3.773C2.41098 4.29619 2.04867 4.84413 1.65885 5.37213C1.81285 5.59144 1.9641 5.81144 2.12567 6.02525C2.24048 6.16069 2.36698 6.28513 2.48729 6.41781C2.60967 6.55256 2.72998 6.69212 2.84754 6.83237C3.01804 7.03656 3.19404 7.238 3.37692 7.43188C3.50273 7.44081 3.62923 7.45044 3.75573 7.45731C4.32498 7.48894 4.89492 7.50612 5.46417 7.502C6.05198 7.49856 6.63979 7.49031 7.22623 7.49169ZM8.82123 20.1245C8.93192 20.1217 9.04398 20.1183 9.15604 20.1176C9.15673 20.0812 9.15948 20.0454 9.16017 20.009C9.16292 19.8137 9.16704 19.6185 9.16979 19.4226C9.17667 19.0094 9.17941 18.5941 9.17529 18.1796C9.17116 17.7568 9.15329 17.3339 9.1306 16.9104C9.10585 16.4381 9.09623 15.9679 9.09348 15.4956C9.09279 15.4495 9.1086 15.4076 9.1196 15.3643C8.8831 15.3471 8.6466 15.3292 8.40942 15.3154C8.41904 15.3574 8.43485 15.3979 8.43348 15.4426C8.3991 16.346 8.35167 17.2453 8.35579 18.1493C8.35785 18.8134 8.35923 19.4789 8.37092 20.1437C8.52079 20.1383 8.67067 20.1293 8.82123 20.1245ZM16.2772 12.3186C16.0957 12.1529 15.9142 11.9886 15.7306 11.8257C15.4879 11.6105 15.2555 11.3816 15.0046 11.1746C14.7351 10.9718 14.4567 10.7793 14.172 10.5978C14.1301 10.571 14.0999 10.5339 14.0669 10.4995C13.9438 10.4974 13.8207 10.4961 13.697 10.4933C13.1511 10.4823 12.6066 10.4404 12.0614 10.4349C11.4922 10.428 10.9236 10.4253 10.3544 10.4239C9.79473 10.4211 9.23304 10.406 8.67204 10.4239C8.18529 10.4404 7.69854 10.4672 7.21248 10.4899C7.1836 11.1031 7.17879 11.7157 7.18223 12.3296C7.18635 12.9408 7.18292 13.552 7.20423 14.1639C7.54454 14.1817 7.88485 14.2017 8.22585 14.2148C8.80404 14.2368 9.38154 14.2938 9.95973 14.3144C10.5221 14.3337 11.0879 14.3447 11.6517 14.3364C12.2099 14.3282 12.7689 14.3351 13.3271 14.3543C13.8469 14.3722 14.3666 14.3571 14.8864 14.3227C14.887 14.3227 14.8884 14.3234 14.8891 14.3234C14.9496 14.2443 15.0053 14.1632 15.0644 14.0834C15.217 13.8744 15.3731 13.6689 15.5189 13.4544C15.7774 13.079 16.0242 12.6967 16.2772 12.3186ZM12.8294 11.6139C12.3495 11.6318 11.8689 11.6249 11.3884 11.6194C11.1326 11.616 10.8769 11.6119 10.6211 11.6119C10.2952 11.6119 9.97004 11.6181 9.64485 11.6366C9.34167 11.6545 9.08798 11.8766 9.08798 12.1949C9.08798 12.4816 9.34167 12.7744 9.64485 12.7517C10.2072 12.7091 10.7689 12.6782 11.3327 12.6686C11.8304 12.6603 12.3302 12.6631 12.8294 12.6686C13.116 12.6713 13.356 12.4259 13.356 12.1406C13.356 11.8614 13.116 11.6036 12.8294 11.6139ZM8.43967 0.777563C8.45754 0.7755 8.47542 0.773437 8.49329 0.771375C8.49604 0.770687 8.49879 0.770688 8.50154 0.77C8.48092 0.772063 8.46029 0.774813 8.43967 0.777563Z" fill="#E7E7E9"/>
</svg>
