<svg width="40" height="40" viewBox="0 0 40 40" fill="none" xmlns="http://www.w3.org/2000/svg">
<rect width="40" height="40" rx="20" fill="#A7EC29"/>
<path fill-rule="evenodd" clip-rule="evenodd" d="M15.4221 14.4699L15.5329 14.5668L25.4333 24.4659C25.563 24.5955 25.6604 24.7539 25.7175 24.9282C25.7746 25.1026 25.7897 25.2879 25.7618 25.4691C25.7338 25.6504 25.6635 25.8225 25.5566 25.9715C25.4496 26.1206 25.3091 26.2422 25.1463 26.3268L25.0109 26.3851L12.8951 30.8499C10.6178 31.6899 8.39994 29.5491 9.09177 27.2753L9.15011 27.1049L13.6138 14.9891C13.6728 14.8286 13.7664 14.683 13.8879 14.5627C14.0094 14.4424 14.1558 14.3503 14.3169 14.2928C14.478 14.2354 14.6497 14.2141 14.8199 14.2303C14.9901 14.2466 15.1547 14.3001 15.3019 14.3871L15.4221 14.4699ZM15.1724 17.5056L11.3399 27.9123C11.3043 28.0091 11.295 28.1136 11.3129 28.2152C11.3309 28.3168 11.3755 28.4118 11.4421 28.4906C11.5088 28.5693 11.5951 28.629 11.6924 28.6635C11.7896 28.698 11.8942 28.7061 11.9956 28.6869L12.0889 28.6601L22.4933 24.8264L15.1724 17.5056ZM25.9583 19.5379C27.0211 19.5939 28.4783 19.8179 29.7453 20.5786C30.0021 20.7309 30.1908 20.9758 30.2725 21.263C30.3542 21.5503 30.3226 21.8579 30.1843 22.1225C30.046 22.3871 29.8115 22.5887 29.5291 22.6856C29.2466 22.7826 28.9378 22.7675 28.6661 22.6436L28.5448 22.5794C27.7491 22.1011 26.7318 21.9144 25.8358 21.8678C25.4666 21.8474 25.0965 21.8489 24.7274 21.8724L24.3588 21.9086C24.0544 21.9479 23.7469 21.8656 23.5027 21.6798C23.2586 21.4939 23.0975 21.2193 23.0544 20.9154C23.0112 20.6116 23.0896 20.3031 23.2724 20.0566C23.4551 19.8101 23.7277 19.6455 24.0309 19.5986C24.6699 19.5161 25.3153 19.4954 25.9583 19.5368M28.3208 16.2864C28.618 16.287 28.9038 16.4011 29.1199 16.6053C29.3359 16.8096 29.4658 17.0885 29.483 17.3853C29.5003 17.6821 29.4036 17.9742 29.2128 18.2021C29.0219 18.43 28.7513 18.5765 28.4561 18.6116L28.3208 18.6198H27.4948C27.1975 18.6191 26.9117 18.5051 26.6957 18.3008C26.4797 18.0966 26.3498 17.8176 26.3325 17.5209C26.3153 17.2241 26.4119 16.932 26.6028 16.7041C26.7936 16.4762 27.0643 16.3297 27.3594 16.2946L27.4948 16.2864H28.3208ZM24.6084 15.3916C24.8093 15.5925 24.93 15.8598 24.9478 16.1433C24.9656 16.4268 24.8794 16.7071 24.7053 16.9316L24.6084 17.0413L23.3718 18.2791C23.1623 18.4906 22.8799 18.614 22.5825 18.6241C22.285 18.6341 21.9949 18.5302 21.7716 18.3334C21.5483 18.1366 21.4086 17.8619 21.3812 17.5655C21.3538 17.2691 21.4407 16.9735 21.6241 16.7391L21.7209 16.6294L22.9576 15.3928C23.066 15.2843 23.1946 15.1982 23.3363 15.1395C23.4779 15.0808 23.6297 15.0506 23.783 15.0506C23.9363 15.0506 24.0882 15.0808 24.2298 15.1395C24.3714 15.1982 24.5001 15.2831 24.6084 15.3916ZM21.5903 9.24909C22.1129 10.8194 21.8329 12.5391 21.5063 13.7408C21.3108 14.4902 21.0411 15.2183 20.7013 15.9143C20.5631 16.1912 20.3206 16.4019 20.0271 16.5C19.7336 16.5981 19.4131 16.5757 19.1362 16.4375C18.8593 16.2993 18.6486 16.0568 18.5504 15.7633C18.4523 15.4698 18.4748 15.1494 18.6129 14.8724C18.8844 14.3135 19.0994 13.7288 19.2546 13.1271C19.5194 12.1564 19.6524 11.1029 19.4483 10.2396L19.3771 9.98759C19.3263 9.84168 19.3049 9.68713 19.3143 9.53291C19.3237 9.37868 19.3636 9.22786 19.4317 9.08918C19.4998 8.95051 19.5948 8.82675 19.7112 8.72509C19.8276 8.62344 19.963 8.5459 20.1095 8.497C20.2561 8.44809 20.4109 8.42879 20.565 8.4402C20.7191 8.45161 20.8694 8.49352 21.0071 8.56349C21.1449 8.63346 21.2674 8.7301 21.3675 8.84779C21.4676 8.96548 21.5433 9.10189 21.5903 9.24909ZM27.9078 12.0934C28.1265 12.3122 28.2494 12.6089 28.2494 12.9183C28.2494 13.2276 28.1265 13.5243 27.9078 13.7431L27.0829 14.5679C26.9753 14.6794 26.8466 14.7682 26.7042 14.8294C26.5619 14.8905 26.4088 14.9227 26.2539 14.924C26.099 14.9254 25.9454 14.8959 25.802 14.8372C25.6586 14.7786 25.5284 14.6919 25.4188 14.5824C25.3093 14.4728 25.2226 14.3426 25.164 14.1992C25.1053 14.0558 25.0758 13.9022 25.0771 13.7473C25.0785 13.5924 25.1107 13.4393 25.1718 13.297C25.233 13.1546 25.3218 13.0259 25.4333 12.9183L26.2581 12.0934C26.4769 11.8747 26.7736 11.7518 27.0829 11.7518C27.3923 11.7518 27.689 11.8747 27.9078 12.0934Z" fill="#120F23"/>
</svg>
