<svg width="22" height="22" viewBox="0 0 22 22" fill="none" xmlns="http://www.w3.org/2000/svg">
<path d="M11 12.8335C10.7734 12.8335 10.5518 12.9007 10.3634 13.0266C10.175 13.1525 10.0281 13.3315 9.94137 13.5408C9.85465 13.7502 9.83195 13.9806 9.87617 14.2029C9.92038 14.4251 10.0295 14.6293 10.1898 14.7896C10.35 14.9498 10.5542 15.0589 10.7764 15.1031C10.9987 15.1474 11.2291 15.1247 11.4385 15.0379C11.6478 14.9512 11.8268 14.8044 11.9527 14.6159C12.0786 14.4275 12.1458 14.206 12.1458 13.9793C12.1458 13.6754 12.0251 13.384 11.8102 13.1691C11.5953 12.9542 11.3039 12.8335 11 12.8335ZM11 11.4585C11.2431 11.4585 11.4763 11.3619 11.6482 11.19C11.8201 11.0181 11.9166 10.7849 11.9166 10.5418V7.79183C11.9166 7.54871 11.8201 7.31556 11.6482 7.14365C11.4763 6.97174 11.2431 6.87516 11 6.87516C10.7569 6.87516 10.5237 6.97174 10.3518 7.14365C10.1799 7.31556 10.0833 7.54871 10.0833 7.79183V10.5418C10.0833 10.7849 10.1799 11.0181 10.3518 11.19C10.5237 11.3619 10.7569 11.4585 11 11.4585ZM11 1.8335C9.18699 1.8335 7.41471 2.37111 5.90726 3.37836C4.39981 4.3856 3.22489 5.81724 2.53109 7.49223C1.83728 9.16722 1.65575 11.0103 2.00945 12.7885C2.36315 14.5666 3.23619 16.2 4.51817 17.482C5.80015 18.764 7.4335 19.637 9.21166 19.9907C10.9898 20.3444 12.8329 20.1629 14.5079 19.4691C16.1829 18.7753 17.6145 17.6003 18.6218 16.0929C19.629 14.5854 20.1666 12.8132 20.1666 11.0002C20.1639 8.56984 19.1973 6.23983 17.4788 4.52134C15.7603 2.80284 13.4303 1.8362 11 1.8335ZM11 18.3335C9.54959 18.3335 8.13176 17.9034 6.9258 17.0976C5.71984 16.2918 4.77991 15.1465 4.22487 13.8065C3.66982 12.4665 3.5246 10.992 3.80756 9.5695C4.09052 8.14697 4.78895 6.8403 5.81453 5.81471C6.84012 4.78913 8.14679 4.0907 9.56932 3.80774C10.9918 3.52478 12.4663 3.67 13.8063 4.22505C15.1463 4.78009 16.2916 5.72002 17.0974 6.92598C17.9032 8.13194 18.3333 9.54977 18.3333 11.0002C18.3311 12.9444 17.5578 14.8084 16.183 16.1832C14.8082 17.5579 12.9442 18.3313 11 18.3335Z" fill="#E7E7E9"/>
</svg>
