<svg width="16" height="20" viewBox="0 0 16 20" fill="none" xmlns="http://www.w3.org/2000/svg">
<path d="M2.12 10.5718C6.03164 10.2252 9.96103 10.0996 13.88 10.2766" stroke="#E7E7E9" stroke-width="2" stroke-linecap="round" stroke-linejoin="round"/>
<path d="M2.66663 10.2515C2.87791 11.679 2.80151 13.7594 2.74202 15.5055" stroke="#E7E7E9" stroke-width="2" stroke-linecap="round" stroke-linejoin="round"/>
<path d="M13.3334 10.8652C13.3334 12.4983 13.3334 14.1387 13.3334 15.7755" stroke="#E7E7E9" stroke-width="2" stroke-linecap="round" stroke-linejoin="round"/>
<path d="M5.84807 7.70703C4.83391 8.71112 3.93907 9.34638 3.17456 10.4241" stroke="#E7E7E9" stroke-width="2" stroke-linecap="round" stroke-linejoin="round"/>
<path d="M5.84796 7.70703C5.81072 8.33477 5.78772 9.58361 5.84796 10.1966" stroke="#E7E7E9" stroke-width="2" stroke-linecap="round" stroke-linejoin="round"/>
<path d="M6.07007 10.2176C6.89035 9.55121 7.77831 8.55069 8.55307 7.88574" stroke="#E7E7E9" stroke-width="2" stroke-linecap="round" stroke-linejoin="round"/>
<path d="M8.76257 7.70703C8.76257 8.51806 8.85345 9.48334 8.87949 10.2174" stroke="#E7E7E9" stroke-width="2" stroke-linecap="round" stroke-linejoin="round"/>
<path d="M10.362 3.34033C10.46 5.60146 10.3118 7.84496 10.3118 10.0996" stroke="#E7E7E9" stroke-width="2" stroke-linecap="round" stroke-linejoin="round"/>
<path d="M11.2416 3.72363C11.2891 5.95723 11.4927 8.20354 11.5683 10.424" stroke="#E7E7E9" stroke-width="2" stroke-linecap="round" stroke-linejoin="round"/>
<path d="M10.5885 3.22174C10.8005 3.15679 11.0241 3.28034 11.2418 3.30963" stroke="#E7E7E9" stroke-width="2" stroke-linecap="round" stroke-linejoin="round"/>
<path d="M10.8397 4.34327C10.9168 4.34897 10.9905 4.3042 11.0659 4.28467" stroke="#E7E7E9" stroke-width="2" stroke-linecap="round" stroke-linejoin="round"/>
<path d="M4.33154 11.9007C7.09698 11.8991 9.8773 11.8706 12.6489 11.8706" stroke="#E7E7E9" stroke-width="2" stroke-linecap="round" stroke-linejoin="round"/>
</svg>
