<svg width="20" height="21" viewBox="0 0 20 21" fill="none" xmlns="http://www.w3.org/2000/svg">
<path d="M16.6667 11.1922C16.6667 17.2627 11.6297 18.7803 9.11108 18.7803C6.90741 18.7803 2.5 17.2627 2.5 11.1922C2.5 8.81771 3.71789 7.22298 4.8833 6.31226C5.53201 5.80531 6.35867 6.31006 6.44181 7.14154L6.51333 7.85677C6.60043 8.72774 7.37443 9.44182 8.0911 8.96471C9.49483 8.03025 10 5.78355 10 4.5527V4.27643C10 3.05594 11.2032 2.27045 12.1686 2.98566C14.3044 4.568 16.6667 7.32788 16.6667 11.1922Z" stroke="#E7E7E9"/>
<path d="M6.66663 15.7452C6.66663 18.1733 8.74071 18.7804 9.77771 18.7804C10.6851 18.7804 12.5 18.1733 12.5 15.7452C12.5 14.8053 12.0089 14.1708 11.5336 13.8046C11.202 13.5491 10.7356 13.7786 10.6215 14.1873C10.4729 14.7201 9.93563 15.055 9.66196 14.5769C9.41171 14.1397 9.41171 13.484 9.41171 13.0894C9.41171 12.5459 8.87821 12.1941 8.44904 12.5136C7.5887 13.154 6.66663 14.2402 6.66663 15.7452Z" stroke="#E7E7E9"/>
</svg>
