<svg width="16" height="12" viewBox="0 0 16 12" fill="none" xmlns="http://www.w3.org/2000/svg">
<path d="M9.98637 6.13472L10.8951 5.22597C10.9613 5.47334 11 5.73197 11 5.99997C11 7.65422 9.65425 8.99997 8 8.99997C7.732 8.99997 7.47337 8.96122 7.226 8.8951L8.13475 7.98634C9.12838 7.91859 9.91862 7.12835 9.98637 6.13472ZM15.937 5.75709C15.8755 5.64647 15.0033 4.1181 13.2983 2.82285L12.5706 3.55047C13.8139 4.4646 14.6016 5.53072 14.9117 6.00072C14.3191 6.90309 11.9944 9.99997 8 9.99997C7.401 9.99997 6.844 9.92334 6.31987 9.8011L5.49825 10.6227C6.25362 10.8543 7.08388 11 8 11C13.2341 11 15.8291 6.43697 15.937 6.24285C16.021 6.09172 16.021 5.90822 15.937 5.75709ZM13.8535 0.85347L2.8535 11.8535C2.75587 11.9511 2.62788 12 2.5 12C2.37212 12 2.24413 11.9511 2.1465 11.8535C1.95113 11.6581 1.95113 11.3417 2.1465 11.1465L3.546 9.74697C1.2835 8.38109 0.133875 6.37047 0.063 6.24285C-0.021 6.09172 -0.021 5.90809 0.063 5.75697C0.170875 5.56297 2.76587 0.99997 8 0.99997C9.35337 0.99997 10.5256 1.30872 11.5278 1.76522L13.1465 0.14647C13.3419 -0.0489048 13.6583 -0.0489048 13.8535 0.14647C14.0487 0.341845 14.0489 0.65822 13.8535 0.85347ZM4.29163 9.00135L5.5575 7.73547C5.20787 7.24497 5 6.64684 5 5.99997C5 4.34572 6.34575 2.99997 8 2.99997C8.64688 2.99997 9.245 3.20785 9.7355 3.55735L10.7591 2.53372C9.95037 2.20985 9.03137 1.99997 8 1.99997C4.00562 1.99997 1.68087 5.09684 1.08837 5.99922C1.46463 6.56947 2.54612 8.01297 4.29163 9.00135ZM6.28337 7.00947L9.0095 4.28334C8.71212 4.10772 8.36975 3.99997 8 3.99997C6.89725 3.99997 6 4.89722 6 5.99997C6 6.36972 6.10775 6.71209 6.28337 7.00947Z" fill="#B3B3B3"/>
</svg>
