<svg width="24" height="25" viewBox="0 0 24 25" fill="none" xmlns="http://www.w3.org/2000/svg">
<g clip-path="url(#clip0_265_1142)">
<path d="M12 22.25C11.2044 22.25 10.4413 21.9339 9.87868 21.3713C9.31607 20.8087 9 20.0456 9 19.25C9 19.0511 9.07902 18.8603 9.21967 18.7197C9.36032 18.579 9.55109 18.5 9.75 18.5H14.25C14.4489 18.5 14.6397 18.579 14.7803 18.7197C14.921 18.8603 15 19.0511 15 19.25C15 20.0456 14.6839 20.8087 14.1213 21.3713C13.5587 21.9339 12.7956 22.25 12 22.25ZM10.7025 20C10.8344 20.2273 11.0236 20.416 11.2513 20.5471C11.479 20.6783 11.7372 20.7473 12 20.7473C12.2628 20.7473 12.521 20.6783 12.7487 20.5471C12.9764 20.416 13.1656 20.2273 13.2975 20H10.7025Z" fill="#E7E7E9"/>
<path d="M13.5 5.75H10.5C10.3011 5.75 10.1103 5.67098 9.96967 5.53033C9.82902 5.38968 9.75 5.19891 9.75 5C9.75 4.40326 9.98705 3.83097 10.409 3.40901C10.831 2.98705 11.4033 2.75 12 2.75C12.5967 2.75 13.169 2.98705 13.591 3.40901C14.0129 3.83097 14.25 4.40326 14.25 5C14.25 5.19891 14.171 5.38968 14.0303 5.53033C13.8897 5.67098 13.6989 5.75 13.5 5.75Z" fill="#E7E7E9"/>
<path d="M20.25 20H3.75C3.55109 20 3.36032 19.921 3.21967 19.7803C3.07902 19.6397 3 19.4489 3 19.25C2.99934 18.403 3.20363 17.5684 3.59543 16.8175C3.98723 16.0665 4.5549 15.4215 5.25 14.9375V11C5.24996 9.21756 5.95494 7.50745 7.21109 6.24287C8.46725 4.97828 10.1726 4.26188 11.955 4.25H12.0375C13.8277 4.25 15.5446 4.96116 16.8105 6.22703C18.0763 7.4929 18.7875 9.20979 18.7875 11V14.9375C19.4757 15.4256 20.0361 16.0724 20.4212 16.8231C20.8063 17.5738 21.0049 18.4063 21 19.25C21 19.4489 20.921 19.6397 20.7803 19.7803C20.6397 19.921 20.4489 20 20.25 20ZM4.575 18.5H19.425C19.3188 17.98 19.1034 17.4886 18.7931 17.058C18.4828 16.6275 18.0847 16.2677 17.625 16.0025C17.5105 15.9364 17.4156 15.8413 17.3497 15.7267C17.2839 15.6121 17.2495 15.4822 17.25 15.35V11C17.25 9.60761 16.6969 8.27226 15.7123 7.28769C14.7277 6.30312 13.3924 5.75 12 5.75C10.6076 5.75 9.27226 6.30312 8.28769 7.28769C7.30313 8.27226 6.75 9.60761 6.75 11V15.35C6.75053 15.4822 6.71612 15.6121 6.65027 15.7267C6.58442 15.8413 6.48945 15.9364 6.375 16.0025C5.91533 16.2677 5.51719 16.6275 5.2069 17.058C4.89661 17.4886 4.68123 17.98 4.575 18.5Z" fill="#E7E7E9"/>
</g>
<defs>
<clipPath id="clip0_265_1142">
<rect width="24" height="24" fill="white" transform="translate(0 0.5)"/>
</clipPath>
</defs>
</svg>
