<svg width="23" height="22" viewBox="0 0 23 22" fill="none" xmlns="http://www.w3.org/2000/svg">
<path d="M10.8495 5.22716C10.8495 5.54909 10.5245 5.82556 10.1361 5.82116C9.74422 5.81676 9.35496 5.81822 8.96306 5.81822C8.70238 5.81822 8.44258 5.81822 8.18366 5.81676C7.53196 5.81236 6.88378 5.83142 6.23296 5.84316C5.82081 5.85049 5.47646 5.55202 5.47646 5.21469C5.47646 4.87003 5.82081 4.58917 6.23296 4.58623C6.29549 4.58623 6.35802 4.5855 6.42055 4.5855C7.03086 4.5855 7.64116 4.60383 8.25147 4.61923C8.87851 4.6339 9.50819 4.63683 10.1352 4.63537C10.5245 4.63243 10.8495 4.90596 10.8495 5.22716ZM19.8385 15.5729C19.8376 15.5744 19.8359 15.5751 19.8341 15.5766C19.8288 15.5817 19.8244 15.5876 19.8191 15.5927C19.8262 15.5861 19.8324 15.5795 19.8385 15.5729ZM22.3995 12.6389C21.9504 13.1596 21.5048 13.6839 21.0521 14.2016C20.8583 14.426 20.654 14.6438 20.4612 14.8697C20.2577 15.1088 20.0604 15.3493 19.8341 15.5766C19.7355 15.6756 19.6342 15.7519 19.4722 15.7893C19.3797 15.8105 19.2837 15.8135 19.1895 15.8017C19.1401 15.8098 19.0943 15.8267 19.0424 15.8267C18.4224 15.8208 17.805 15.8252 17.185 15.7915C16.8372 15.7739 16.4911 15.7592 16.145 15.746C15.7953 15.7328 15.4457 15.7387 15.0961 15.7343C14.4039 15.7262 13.7099 15.7181 13.015 15.7093C13.0203 15.7387 13.0362 15.7651 13.0362 15.7951C13.0309 16.3033 13.008 16.8108 13.0239 17.319C13.0379 17.7861 13.0485 18.2533 13.0538 18.7219C13.0608 19.1817 13.0591 19.6429 13.0714 20.1042C13.0767 20.319 13.0785 20.5332 13.0855 20.7466C13.089 20.9343 13.1084 21.1235 13.0802 21.3112C13.0802 21.419 13.0467 21.5195 12.9842 21.6126C12.9199 21.7014 12.8336 21.7725 12.7271 21.8253C12.58 21.8964 12.4074 21.914 12.2418 21.8891C12.1872 21.9008 12.1353 21.9177 12.0771 21.9177C11.4633 21.9192 10.8468 21.9683 10.2348 21.9991C10.0287 22.0094 9.84285 21.9309 9.70811 21.8099C9.46945 21.7153 9.29771 21.5151 9.29859 21.2841C9.31092 19.4361 9.28626 17.5859 9.35408 15.7394C9.35584 15.6844 9.37697 15.6338 9.39547 15.5832C9.05641 15.5781 8.71647 15.5722 8.37741 15.559C7.97934 15.5414 7.64645 15.2943 7.64645 14.9496C7.64645 14.8147 7.71426 14.6856 7.81466 14.5778C7.79792 14.5272 7.77679 14.4781 7.77767 14.4231C7.77943 14.0594 7.76005 13.6971 7.75477 13.3334C7.75125 13.0144 7.75477 12.6961 7.75125 12.3786C7.74244 11.6306 7.67815 10.887 7.7213 10.139C7.73716 9.86546 7.94235 9.63593 8.2409 9.55233C8.37036 9.40126 8.5738 9.29713 8.81158 9.2898C9.04848 9.28393 9.28715 9.27953 9.52493 9.2744C9.50555 9.01333 9.49675 8.75227 9.49146 8.4912C9.49146 8.47947 9.49851 8.46994 9.49939 8.4582C9.19908 8.45747 8.89877 8.45307 8.59758 8.4538C7.85869 8.45527 7.11892 8.45527 6.37827 8.44354C5.63675 8.42887 4.89258 8.45014 4.15105 8.41347C3.93352 8.4406 3.70543 8.3988 3.55131 8.25874C3.06517 7.81361 2.64245 7.32154 2.15808 6.87495C2.0339 6.76128 1.90444 6.65348 1.78379 6.53908C1.63672 6.39902 1.50374 6.24795 1.36811 6.10055C1.10567 5.81822 0.848514 5.53443 0.596641 5.24623C0.490079 5.12523 0.480392 4.93456 0.525306 4.7967C0.574624 4.6515 0.691754 4.52463 0.846753 4.4491C0.866128 4.43957 0.889025 4.4425 0.909281 4.43517C0.938343 4.39043 0.964763 4.34423 1.00792 4.30537C1.02905 4.28703 1.04843 4.26797 1.0678 4.2489C1.20607 4.09637 1.34081 3.94237 1.4826 3.78984C1.44561 3.82944 1.41038 3.86684 1.37516 3.90497C1.6649 3.58891 1.93086 3.25744 2.20387 2.92964C2.54117 2.52485 2.90137 2.13618 3.26333 1.74825C3.36989 1.63312 3.59358 1.57812 3.75827 1.57812C3.81551 1.57812 3.86835 1.59425 3.92207 1.60525C4.03568 1.54512 4.16161 1.50039 4.30428 1.50039C4.67505 1.50039 5.04317 1.50332 5.41394 1.50772C6.66449 1.52459 7.91329 1.56272 9.16297 1.57225C9.16561 1.48646 9.16737 1.40066 9.1709 1.31486C9.17266 1.24079 9.17618 1.16672 9.1797 1.09193C9.18323 0.984126 9.17442 0.857994 9.22021 0.758994C9.30388 0.575662 9.43158 0.37913 9.66231 0.294798C9.81467 0.239798 9.94589 0.200199 10.1062 0.176732C10.3545 0.142266 10.6038 0.116599 10.8521 0.089466C11.1251 0.0593995 11.3981 0.0307998 11.672 0.00806663C11.7337 0.00293334 11.7953 0 11.857 0C12.0296 0 12.1995 0.0212665 12.3686 0.0615995C12.4963 0.0909326 12.6258 0.103399 12.7394 0.166465C12.8107 0.204598 12.8812 0.241998 12.9331 0.297731C13.0221 0.370331 13.082 0.457597 13.1163 0.558062C13.1771 0.681995 13.1824 0.827194 13.1982 0.961393C13.2238 1.17846 13.2528 1.39479 13.2863 1.61039C13.2872 1.61625 13.2881 1.62139 13.2889 1.62725C13.3303 1.62725 13.3717 1.62945 13.4131 1.62799C13.5549 1.62505 13.694 1.60745 13.8341 1.60599C14.1405 1.60012 14.3792 1.77025 14.4902 1.98805C14.5597 2.07898 14.6099 2.18018 14.6126 2.29385C14.6232 2.83651 14.6108 3.38064 14.602 3.92404C14.5932 4.4029 14.5509 4.8803 14.536 5.35916C14.5236 5.82629 14.5236 6.29635 14.5377 6.76495C14.543 6.99668 14.5501 7.22915 14.5624 7.46088C14.5694 7.58188 14.5888 7.70654 14.5818 7.82754C14.5642 8.14067 14.2815 8.401 13.8931 8.401C13.8402 8.401 13.79 8.3856 13.739 8.37534C13.6298 8.42447 13.5117 8.4582 13.3823 8.4538C13.2969 8.45087 13.2114 8.4582 13.1251 8.45967C13.111 8.70533 13.0952 8.95027 13.0811 9.19593C13.0802 9.2128 13.0705 9.22746 13.0679 9.24433C13.3752 9.2458 13.6826 9.24946 13.99 9.24873C14.7209 9.24873 15.4528 9.22966 16.1846 9.2502C16.8803 9.26926 17.5778 9.2964 18.2727 9.259C18.5404 9.24506 18.7685 9.38806 18.8944 9.57506C19.2335 9.76206 19.5558 9.96519 19.8773 10.1735C20.1397 10.3436 20.3775 10.5313 20.6162 10.722C20.8539 10.9097 21.0988 11.0901 21.348 11.2676C21.5814 11.4348 21.8218 11.5961 22.0464 11.7721C22.0763 11.7824 22.1071 11.7897 22.1344 11.8029C22.2991 11.8814 22.4207 12.0156 22.4717 12.1666C22.5219 12.3126 22.5096 12.512 22.3995 12.6389ZM11.6306 9.23773C11.6421 9.23773 11.6535 9.23773 11.6641 9.23773C11.6632 9.22306 11.6535 9.2106 11.6544 9.19593C11.6579 8.95393 11.6641 8.71267 11.6694 8.47067C11.4307 8.46554 11.192 8.46627 10.9551 8.46554C10.956 8.47434 10.9613 8.4824 10.9613 8.4912C10.9631 8.676 10.9631 8.8608 10.9631 9.0456C10.9622 9.1138 10.9692 9.18126 10.9692 9.24873C11.1894 9.24506 11.4096 9.23773 11.6306 9.23773ZM10.668 1.30312C10.6698 1.39919 10.6716 1.49526 10.6742 1.59132C11.0282 1.59719 11.3823 1.60012 11.7363 1.60525C11.7751 1.60599 11.8147 1.60672 11.8534 1.60745C11.8429 1.46079 11.8393 1.31412 11.8208 1.16819C11.7143 1.16672 11.6095 1.17259 11.5029 1.18212C11.2255 1.21512 10.9446 1.25252 10.668 1.30312ZM9.22814 7.25775C9.92916 7.25921 10.6302 7.25628 11.3303 7.25628C11.9045 7.25628 12.4787 7.23281 13.0503 7.17708C13.1084 7.17048 13.1656 7.16608 13.2238 7.16021C13.2246 7.02161 13.2255 6.88301 13.2246 6.74515C13.2229 6.27069 13.2211 5.79476 13.2246 5.32029C13.2282 4.8473 13.2704 4.37577 13.2616 3.90277C13.2555 3.53537 13.2387 3.16724 13.2246 2.79911C13.1656 2.79838 13.1075 2.79325 13.0485 2.79251C11.6518 2.78225 10.2577 2.76905 8.8609 2.76025C8.14403 2.75585 7.43156 2.70085 6.71645 2.69791C5.91328 2.69351 5.10746 2.71551 4.3034 2.72138C4.2444 2.72211 4.19068 2.70451 4.13519 2.69351C3.94497 2.89298 3.75386 3.09171 3.5654 3.29118C3.05989 3.84924 2.59577 4.4337 2.09643 4.9969C2.2937 5.23083 2.48745 5.46549 2.69441 5.69356C2.84148 5.83802 3.00353 5.97076 3.15764 6.11229C3.31441 6.25602 3.46852 6.40488 3.61912 6.55448C3.83753 6.77228 4.06298 6.98715 4.29724 7.19395C4.4584 7.20348 4.62045 7.21375 4.78249 7.22108C5.51169 7.25481 6.24177 7.27314 6.97097 7.26874C7.72395 7.26508 8.47692 7.25628 9.22814 7.25775ZM11.2713 20.7326C11.4131 20.7297 11.5566 20.726 11.7002 20.7253C11.7011 20.6864 11.7046 20.6483 11.7055 20.6094C11.709 20.4012 11.7143 20.1929 11.7178 19.9839C11.7266 19.5432 11.7301 19.1003 11.7249 18.6581C11.7196 18.2071 11.6967 17.7561 11.6676 17.3043C11.6359 16.8005 11.6236 16.2989 11.6201 15.7951C11.6192 15.746 11.6394 15.7013 11.6535 15.6551C11.3506 15.6367 11.0476 15.6177 10.7438 15.603C10.7561 15.6477 10.7764 15.691 10.7746 15.7387C10.7306 16.7023 10.6698 17.6615 10.6751 18.6258C10.6777 19.3342 10.6795 20.044 10.6945 20.7532C10.8865 20.7473 11.0784 20.7378 11.2713 20.7326ZM20.8222 12.4064C20.5897 12.2297 20.3572 12.0544 20.1221 11.8806C19.8112 11.6511 19.5135 11.4069 19.1921 11.1862C18.8469 10.9698 18.4902 10.7645 18.1256 10.5709C18.0719 10.5423 18.0331 10.5027 17.9909 10.4661C17.8332 10.4639 17.6756 10.4624 17.5171 10.4595C16.8178 10.4477 16.1203 10.403 15.4219 10.3971C14.6927 10.3898 13.9644 10.3869 13.2352 10.3854C12.5183 10.3825 11.7988 10.3663 11.0802 10.3854C10.4567 10.403 9.83316 10.4316 9.21053 10.4558C9.17354 11.1099 9.16737 11.7633 9.17178 12.4182C9.17706 13.0701 9.17266 13.722 9.19996 14.3747C9.63589 14.3938 10.0718 14.415 10.5086 14.429C11.2493 14.4524 11.9891 14.5133 12.7297 14.5353C13.4501 14.5558 14.1749 14.5676 14.897 14.5588C15.6122 14.55 16.3281 14.5573 17.0433 14.5778C17.709 14.5969 18.3748 14.5808 19.0406 14.5441C19.0415 14.5441 19.0433 14.5448 19.0441 14.5448C19.1216 14.4605 19.193 14.374 19.2687 14.2889C19.4642 14.066 19.6641 13.8467 19.8508 13.6179C20.182 13.2175 20.4981 12.8098 20.8222 12.4064ZM16.4056 11.6548C15.7909 11.6738 15.1753 11.6665 14.5598 11.6606C14.2321 11.657 13.9045 11.6526 13.5769 11.6526C13.1595 11.6526 12.7429 11.6592 12.3264 11.679C11.938 11.698 11.613 11.9349 11.613 12.2744C11.613 12.5802 11.938 12.8926 12.3264 12.8684C13.0467 12.823 13.7663 12.79 14.4884 12.7797C15.126 12.7709 15.7663 12.7738 16.4056 12.7797C16.7729 12.7826 17.0802 12.5208 17.0802 12.2165C17.0802 11.9188 16.7729 11.6438 16.4056 11.6548ZM10.7825 0.096066C10.8054 0.093866 10.8292 0.091666 10.8521 0.089466C10.8556 0.0887327 10.8583 0.0887327 10.8618 0.0879993C10.8354 0.0901993 10.809 0.0931327 10.7825 0.096066Z" fill="#E7E7E9"/>
</svg>
