<svg width="18" height="18" viewBox="0 0 18 18" fill="none" xmlns="http://www.w3.org/2000/svg">
<g clip-path="url(#clip0_265_2263)">
<path d="M9 5.48438C8.30468 5.48438 7.62497 5.69056 7.04682 6.07686C6.46868 6.46317 6.01808 7.01223 5.75199 7.65463C5.4859 8.29703 5.41628 9.0039 5.55193 9.68586C5.68758 10.3678 6.02241 10.9943 6.51408 11.4859C7.00575 11.9776 7.63217 12.3124 8.31414 12.4481C8.9961 12.5837 9.70298 12.5141 10.3454 12.248C10.9878 11.9819 11.5368 11.5313 11.9231 10.9532C12.3094 10.375 12.5156 9.69533 12.5156 9C12.5156 8.0676 12.1452 7.17339 11.4859 6.51408C10.8266 5.85477 9.9324 5.48438 9 5.48438ZM9 11.6719C8.47155 11.6719 7.95497 11.5152 7.51559 11.2216C7.0762 10.928 6.73374 10.5107 6.53151 10.0225C6.32928 9.53426 6.27637 8.99704 6.37947 8.47874C6.48256 7.96045 6.73703 7.48437 7.1107 7.1107C7.48437 6.73703 7.96045 6.48256 8.47874 6.37946C8.99704 6.27637 9.53426 6.32928 10.0225 6.53151C10.5107 6.73374 10.928 7.0762 11.2216 7.51559C11.5152 7.95497 11.6719 8.47155 11.6719 9C11.6719 9.70863 11.3904 10.3882 10.8893 10.8893C10.3882 11.3904 9.70863 11.6719 9 11.6719Z" fill="#E7E7E9"/>
<path d="M17.0156 6.75H15.7598C15.7306 6.74978 15.7022 6.74046 15.6785 6.72332C15.6548 6.70618 15.637 6.68208 15.6277 6.65438C15.5459 6.42226 15.4521 6.1946 15.3464 5.97234C15.3332 5.94612 15.3286 5.91642 15.3331 5.88742C15.3376 5.85842 15.3511 5.83157 15.3717 5.81063L16.2591 4.92188C16.3505 4.83047 16.423 4.72195 16.4725 4.60251C16.5219 4.48307 16.5474 4.35506 16.5474 4.22578C16.5474 4.0965 16.5219 3.96849 16.4725 3.84905C16.423 3.72962 16.3505 3.6211 16.2591 3.52969L14.4689 1.74094C14.3775 1.64952 14.269 1.577 14.1495 1.52753C14.0301 1.47805 13.9021 1.45259 13.7728 1.45259C13.6435 1.45259 13.5155 1.47805 13.3961 1.52753C13.2766 1.577 13.1681 1.64952 13.0767 1.74094L12.1894 2.62828C12.1684 2.64885 12.1416 2.66235 12.1126 2.66689C12.0836 2.67143 12.0539 2.66678 12.0277 2.65359C11.8054 2.54792 11.5778 2.45404 11.3456 2.37234C11.3179 2.36299 11.2938 2.34523 11.2767 2.32154C11.2595 2.29784 11.2502 2.2694 11.25 2.24016V0.984375C11.25 0.723303 11.1463 0.472923 10.9617 0.288317C10.7771 0.103711 10.5267 0 10.2656 0H7.73438C7.4733 0 7.22292 0.103711 7.03832 0.288317C6.85371 0.472923 6.75 0.723303 6.75 0.984375V2.24016C6.74978 2.2694 6.74046 2.29784 6.72332 2.32154C6.70618 2.34523 6.68208 2.36299 6.65438 2.37234C6.42226 2.45407 6.1946 2.54795 5.97234 2.65359C5.94612 2.66678 5.91642 2.67143 5.88742 2.66689C5.85842 2.66235 5.83157 2.64885 5.81063 2.62828L4.92188 1.74094C4.83047 1.64952 4.72195 1.577 4.60251 1.52753C4.48307 1.47805 4.35506 1.45259 4.22578 1.45259C4.0965 1.45259 3.96849 1.47805 3.84905 1.52753C3.72962 1.577 3.6211 1.64952 3.52969 1.74094L1.74094 3.53109C1.64952 3.6225 1.577 3.73102 1.52753 3.85046C1.47805 3.9699 1.45259 4.09791 1.45259 4.22719C1.45259 4.35647 1.47805 4.48448 1.52753 4.60391C1.577 4.72335 1.64952 4.83187 1.74094 4.92328L2.62828 5.81063C2.64885 5.83157 2.66235 5.85842 2.66689 5.88742C2.67143 5.91642 2.66678 5.94612 2.65359 5.97234C2.54792 6.19458 2.45404 6.42224 2.37234 6.65438C2.36299 6.68208 2.34523 6.70618 2.32154 6.72332C2.29784 6.74046 2.2694 6.74978 2.24016 6.75H0.984375C0.723303 6.75 0.472923 6.85371 0.288317 7.03832C0.103711 7.22292 0 7.4733 0 7.73438L0 10.2656C0 10.5267 0.103711 10.7771 0.288317 10.9617C0.472923 11.1463 0.723303 11.25 0.984375 11.25H2.24016C2.2694 11.2502 2.29784 11.2595 2.32154 11.2767C2.34523 11.2938 2.36299 11.3179 2.37234 11.3456C2.45407 11.5777 2.54795 11.8054 2.65359 12.0277C2.66678 12.0539 2.67143 12.0836 2.66689 12.1126C2.66235 12.1416 2.64885 12.1684 2.62828 12.1894L1.74094 13.0781C1.64952 13.1695 1.577 13.2781 1.52753 13.3975C1.47805 13.5169 1.45259 13.6449 1.45259 13.7742C1.45259 13.9035 1.47805 14.0315 1.52753 14.1509C1.577 14.2704 1.64952 14.3789 1.74094 14.4703L3.53109 16.2605C3.6225 16.3519 3.73102 16.4244 3.85046 16.4739C3.9699 16.5234 4.09791 16.5488 4.22719 16.5488C4.35647 16.5488 4.48448 16.5234 4.60391 16.4739C4.72335 16.4244 4.83187 16.3519 4.92328 16.2605L5.81063 15.3731C5.83157 15.3526 5.85842 15.3391 5.88742 15.3345C5.91642 15.33 5.94612 15.3346 5.97234 15.3478C6.19458 15.4535 6.42224 15.5474 6.65438 15.6291C6.68208 15.6384 6.70618 15.6562 6.72332 15.6799C6.74046 15.7036 6.74978 15.732 6.75 15.7613V17.0156C6.75 17.2767 6.85371 17.5271 7.03832 17.7117C7.22292 17.8963 7.4733 18 7.73438 18H10.2656C10.5267 18 10.7771 17.8963 10.9617 17.7117C11.1463 17.5271 11.25 17.2767 11.25 17.0156V15.7598C11.2502 15.7306 11.2595 15.7022 11.2767 15.6785C11.2938 15.6548 11.3179 15.637 11.3456 15.6277C11.5777 15.5459 11.8054 15.4521 12.0277 15.3464C12.0539 15.3332 12.0836 15.3286 12.1126 15.3331C12.1416 15.3376 12.1684 15.3511 12.1894 15.3717L13.0781 16.2591C13.1695 16.3505 13.2781 16.423 13.3975 16.4725C13.5169 16.5219 13.6449 16.5474 13.7742 16.5474C13.9035 16.5474 14.0315 16.5219 14.1509 16.4725C14.2704 16.423 14.3789 16.3505 14.4703 16.2591L16.2605 14.4689C16.3519 14.3775 16.4244 14.269 16.4739 14.1495C16.5234 14.0301 16.5488 13.9021 16.5488 13.7728C16.5488 13.6435 16.5234 13.5155 16.4739 13.3961C16.4244 13.2766 16.3519 13.1681 16.2605 13.0767L15.3731 12.1894C15.3526 12.1684 15.3391 12.1416 15.3345 12.1126C15.33 12.0836 15.3346 12.0539 15.3478 12.0277C15.4535 11.8054 15.5474 11.5778 15.6291 11.3456C15.6384 11.3179 15.6562 11.2938 15.6799 11.2767C15.7036 11.2595 15.732 11.2502 15.7613 11.25H17.0156C17.2767 11.25 17.5271 11.1463 17.7117 10.9617C17.8963 10.7771 18 10.5267 18 10.2656V7.73438C18 7.4733 17.8963 7.22292 17.7117 7.03832C17.5271 6.85371 17.2767 6.75 17.0156 6.75ZM17.1562 10.2656C17.1562 10.3029 17.1414 10.3387 17.1151 10.3651C17.0887 10.3914 17.0529 10.4062 17.0156 10.4062H15.7598C15.5559 10.4065 15.357 10.4701 15.1908 10.5882C15.0245 10.7064 14.899 10.8732 14.8317 11.0658C14.7598 11.2697 14.6772 11.4696 14.5842 11.6648C14.4951 11.8489 14.4655 12.056 14.4995 12.2577C14.5336 12.4593 14.6295 12.6453 14.7741 12.7898L15.6614 13.6772C15.6876 13.7035 15.7023 13.7392 15.7023 13.7763C15.7023 13.8135 15.6876 13.8491 15.6614 13.8755L13.8727 15.6628C13.8463 15.689 13.8107 15.7037 13.7735 15.7037C13.7364 15.7037 13.7007 15.689 13.6744 15.6628L12.787 14.7755C12.6424 14.6309 12.4564 14.535 12.2548 14.5009C12.0532 14.4669 11.846 14.4965 11.662 14.5856C11.4664 14.6786 11.2659 14.7612 11.0616 14.8331C10.8693 14.9007 10.7027 15.0262 10.5848 15.1925C10.4669 15.3587 10.4036 15.5575 10.4034 15.7613V17.0156C10.4034 17.0529 10.3886 17.0887 10.3622 17.1151C10.3359 17.1414 10.3001 17.1562 10.2628 17.1562H7.73438C7.69708 17.1562 7.66131 17.1414 7.63494 17.1151C7.60857 17.0887 7.59375 17.0529 7.59375 17.0156V15.7598C7.59352 15.5559 7.52994 15.357 7.41179 15.1908C7.29364 15.0245 7.12676 14.899 6.93422 14.8317C6.73034 14.7598 6.53037 14.6772 6.33516 14.5842C6.15114 14.4951 5.94395 14.4655 5.74235 14.4995C5.54075 14.5336 5.35474 14.6295 5.21016 14.7741L4.32281 15.6614C4.29646 15.6876 4.26082 15.7023 4.22367 15.7023C4.18652 15.7023 4.15088 15.6876 4.12453 15.6614L2.33719 13.8727C2.311 13.8463 2.29629 13.8107 2.29629 13.7735C2.29629 13.7364 2.311 13.7007 2.33719 13.6744L3.22453 12.787C3.36909 12.6424 3.46504 12.4564 3.49906 12.2548C3.53308 12.0532 3.50348 11.846 3.41438 11.662C3.32139 11.4664 3.23878 11.2659 3.16688 11.0616C3.09894 10.87 2.9734 10.7042 2.80747 10.5869C2.64155 10.4696 2.44337 10.4065 2.24016 10.4062H0.984375C0.947079 10.4062 0.91131 10.3914 0.884938 10.3651C0.858566 10.3387 0.84375 10.3029 0.84375 10.2656V7.73438C0.84375 7.69708 0.858566 7.66131 0.884938 7.63494C0.91131 7.60857 0.947079 7.59375 0.984375 7.59375H2.24016C2.44412 7.59352 2.64298 7.52994 2.80925 7.41179C2.97551 7.29364 3.10097 7.12676 3.16828 6.93422C3.24023 6.73034 3.32285 6.53037 3.41578 6.33516C3.50489 6.15114 3.53448 5.94395 3.50046 5.74235C3.46644 5.54075 3.37049 5.35474 3.22594 5.21016L2.33859 4.32281C2.3124 4.29646 2.2977 4.26082 2.2977 4.22367C2.2977 4.18652 2.3124 4.15088 2.33859 4.12453L4.12734 2.33719C4.15369 2.311 4.18933 2.29629 4.22648 2.29629C4.26364 2.29629 4.29928 2.311 4.32562 2.33719L5.21297 3.22453C5.35755 3.36909 5.54356 3.46504 5.74516 3.49906C5.94676 3.53308 6.15395 3.50348 6.33797 3.41438C6.53364 3.32139 6.73408 3.23878 6.93844 3.16688C7.12997 3.09894 7.29577 2.9734 7.41311 2.80747C7.53044 2.64155 7.59354 2.44337 7.59375 2.24016V0.984375C7.59375 0.947079 7.60857 0.91131 7.63494 0.884938C7.66131 0.858566 7.69708 0.84375 7.73438 0.84375H10.2656C10.3029 0.84375 10.3387 0.858566 10.3651 0.884938C10.3914 0.91131 10.4062 0.947079 10.4062 0.984375V2.24016C10.4065 2.44412 10.4701 2.64298 10.5882 2.80925C10.7064 2.97551 10.8732 3.10097 11.0658 3.16828C11.2697 3.24023 11.4696 3.32285 11.6648 3.41578C11.8489 3.50489 12.056 3.53448 12.2577 3.50046C12.4593 3.46644 12.6453 3.37049 12.7898 3.22594L13.6772 2.33859C13.7035 2.3124 13.7392 2.2977 13.7763 2.2977C13.8135 2.2977 13.8491 2.3124 13.8755 2.33859L15.6656 4.12875C15.6918 4.1551 15.7065 4.19074 15.7065 4.22789C15.7065 4.26504 15.6918 4.30068 15.6656 4.32703L14.7783 5.21438C14.6337 5.35896 14.5378 5.54497 14.5038 5.74657C14.4697 5.94817 14.4993 6.15536 14.5884 6.33938C14.6814 6.53505 14.764 6.73548 14.8359 6.93984C14.9035 7.13212 15.029 7.2987 15.1953 7.41658C15.3615 7.53446 15.5603 7.59784 15.7641 7.59797H17.0156C17.0529 7.59797 17.0887 7.61278 17.1151 7.63916C17.1414 7.66553 17.1562 7.7013 17.1562 7.73859V10.2656Z" fill="#E7E7E9"/>
</g>
<defs>
<clipPath id="clip0_265_2263">
<rect width="18" height="18" fill="white"/>
</clipPath>
</defs>
</svg>
