<svg width="16" height="12" viewBox="0 0 16 12" fill="none" xmlns="http://www.w3.org/2000/svg">
  <path d="M8 2C4.36364 2 1.25818 4.28 0 7.5C1.25818 10.72 4.36364 13 8 13C11.6364 13 14.7418 10.72 16 7.5C14.7418 4.28 11.6364 2 8 2ZM8 11.5C6.07273 11.5 4.36364 10.08 3.38182 7.5C4.36364 4.92 6.07273 3.5 8 3.5C9.92727 3.5 11.6364 4.92 12.6182 7.5C11.6364 10.08 9.92727 11.5 8 11.5ZM8 5C6.89545 5 6 5.89545 6 7C6 8.10455 6.89545 9 8 9C9.10455 9 10 8.10455 10 7C10 5.89545 9.10455 5 8 5ZM8 7.5C7.44727 7.5 7 7.05273 7 6.5C7 5.94727 7.44727 5.5 8 5.5C8.55273 5.5 9 5.94727 9 6.5C9 7.05273 8.55273 7.5 8 7.5Z" fill="#B3B3B3"/>
</svg>