<svg width="42" height="42" viewBox="0 0 42 42" fill="none" xmlns="http://www.w3.org/2000/svg">
<path d="M25.5465 21.875L22.6835 27.0235C22.5167 27.3654 22.5604 27.6553 22.8148 27.8933C23.0691 28.1313 23.3549 28.1569 23.6723 27.9703L32.7495 22.1848C33.1905 21.9024 33.411 21.5075 33.411 21C33.411 20.4925 33.1905 20.0976 32.7495 19.8153L23.6723 14.0298C23.3538 13.8419 23.0679 13.8676 22.8148 14.1068C22.5616 14.3459 22.5173 14.6358 22.6818 14.9765L25.5465 20.125H5.25002C5.00035 20.125 4.7921 20.2084 4.62526 20.3753C4.45843 20.5421 4.37502 20.7503 4.37502 21C4.37502 21.2497 4.45843 21.4579 4.62526 21.6248C4.7921 21.7916 5.00035 21.875 5.25002 21.875H25.5465Z" fill="#E7E7E9"/>
</svg>
