<svg width="16" height="17" viewBox="0 0 16 17" fill="none" xmlns="http://www.w3.org/2000/svg">
<g clip-path="url(#clip0_180_10340)">
<path d="M8.00006 2.54369C8.87006 2.54369 9.57506 3.30744 9.57506 4.24994C9.57506 5.19244 8.87006 5.95619 8.00006 5.95619C7.13006 5.95619 6.42506 5.19244 6.42506 4.24994C6.42506 3.30744 7.13006 2.54369 8.00006 2.54369ZM8.00006 9.85619C10.2276 9.85619 12.5751 11.0424 12.5751 11.5624V12.4562H3.42506V11.5624C3.42506 11.0424 5.77256 9.85619 8.00006 9.85619ZM8.00006 0.999939C6.34256 0.999939 5.00006 2.45431 5.00006 4.24994C5.00006 6.04556 6.34256 7.49994 8.00006 7.49994C9.65756 7.49994 11.0001 6.04556 11.0001 4.24994C11.0001 2.45431 9.65756 0.999939 8.00006 0.999939ZM8.00006 8.31244C5.99756 8.31244 2.00006 9.40119 2.00006 11.5624V13.1874C2.00006 13.6343 2.33756 13.9999 2.75006 13.9999H13.2501C13.6626 13.9999 14.0001 13.6343 14.0001 13.1874V11.5624C14.0001 9.40119 10.0026 8.31244 8.00006 8.31244Z" fill="#B3B3B3"/>
</g>
<defs>
<clipPath id="clip0_180_10340">
<rect width="15.2672" height="15.2672" fill="white" transform="translate(0.267151 0.866394)"/>
</clipPath>
</defs>
</svg>
